# xmcd
#
# Track frame offsets:
#	150
#	18413
#	36493
#	70272
#
# Disc length: 1713 seconds
#
# Revision: 1
# Processed by: cddbd v1.5.2PL0 Copyright (c) Steve Scherf et al.
# Submitted via: audiograbber 1.83.01
#
DISCID=3106af04
DTITLE=Jason Mraz - Im yours
DYEAR=2008
DGENRE=Country
TTITLE0=Im yours
TTITLE1=Live high
TTITLE2=If it kills me
TTITLE3=Daten-CD
EXTD=
EXTT0=
EXTT1=
EXTT2=
EXTT3=
PLAYORDER=
